<svg xmlns="http://www.w3.org/2000/svg" xml:space="preserve" style="fill-rule:evenodd;clip-rule:evenodd;stroke-linejoin:round;stroke-miterlimit:2" viewBox="0 0 777 777"><path d="M710 0H67C30 0 0 30 0 67v643c0 37 30 67 67 67h643c37 0 67-30 67-67V67c0-37-30-67-67-67Z" style="fill-rule:nonzero"/><path d="M257 188h66v386h-75V287c-13 13-29 24-46 30v-70c25-12 44-33 55-59Zm203 260v37c0 20 2 33 5 39s9 9 17 9c7 0 13-3 16-10s4-19 4-38v-37c0-19-1-32-4-38s-8-9-16-9-14 3-17 10c-3 6-5 19-5 37Zm2-172v20c0 20 2 33 4 39 3 6 8 9 16 9 7 0 11-4 14-10s4-19 4-38v-20c0-19-1-32-4-38s-8-9-15-9-12 3-15 10c-2 6-4 19-4 37Zm-24 95c-16-5-29-14-39-26-9-13-13-28-13-46v-23c0-33 7-57 22-72s40-22 74-22c33 0 58 7 72 22 15 15 23 39 23 72v23c0 18-5 33-14 46-9 12-22 21-38 26 18 5 31 14 40 27 9 14 14 31 14 52v36c0 33-8 57-23 72-16 15-41 23-75 23s-59-8-74-22c-15-15-23-39-23-73v-36c0-21 4-38 14-52 9-13 22-22 40-27Z" style="fill:#fff"/></svg>